HIERARCHY
ROOT Hips
{
	OFFSET 0.00000 0.00000 0.00000
	CHANNELS 6 Xposition Yposition Zposition Zrotation Yrotation Xrotation 
	JOINT LHipJoint
	{
		OFFSET 0 0 0
		CHANNELS 3 Zrotation Yrotation Xrotation
		JOINT LeftUpLeg
		{
			OFFSET 1.26600 -1.82114 0.91038
			CHANNELS 3 Zrotation Yrotation Xrotation
			JOINT LeftLeg
			{
				OFFSET 2.50076 -6.87080 0.00000
				CHANNELS 3 Zrotation Yrotation Xrotation
				JOINT LeftFoot
				{
					OFFSET 2.57364 -7.07102 0.00000
					CHANNELS 3 Zrotation Yrotation Xrotation
					JOINT LeftToeBase
					{
						OFFSET 0.13572 -0.37290 1.97004
						CHANNELS 3 Zrotation Yrotation Xrotation
						End Site
						{
							OFFSET 0.00000 -0.00000 1.01383
						}
					}
				}
			}
		}
	}
	JOINT RHipJoint
	{
		OFFSET 0 0 0
		CHANNELS 3 Zrotation Yrotation Xrotation
		JOINT RightUpLeg
		{
			OFFSET -1.20803 -1.82114 0.91038
			CHANNELS 3 Zrotation Yrotation Xrotation
			JOINT RightLeg
			{
				OFFSET -2.54916 -7.00377 0.00000
				CHANNELS 3 Zrotation Yrotation Xrotation
				JOINT RightFoot
				{
					OFFSET -2.56374 -7.04382 0.00000
					CHANNELS 3 Zrotation Yrotation Xrotation
					JOINT RightToeBase
					{
						OFFSET -0.23520 -0.64621 2.09921
						CHANNELS 3 Zrotation Yrotation Xrotation
						End Site
						{
							OFFSET -0.00000 -0.00000 1.10065
						}
					}
				}
			}
		}
	}
	JOINT LowerBack
	{
		OFFSET 0 0 0
		CHANNELS 3 Zrotation Yrotation Xrotation
		JOINT Spine
		{
			OFFSET 0.05492 2.10797 -0.12074
			CHANNELS 3 Zrotation Yrotation Xrotation
			JOINT Spine1
			{
				OFFSET 0.04577 2.11592 -0.04483
				CHANNELS 3 Zrotation Yrotation Xrotation
				JOINT Neck
				{
					OFFSET 0 0 0
					CHANNELS 3 Zrotation Yrotation Xrotation
					JOINT Neck1
					{
						OFFSET -0.10759 1.80167 0.15770
						CHANNELS 3 Zrotation Yrotation Xrotation
						JOINT Head
						{
							OFFSET 0.09237 1.77509 -0.40848
							CHANNELS 3 Zrotation Yrotation Xrotation
							End Site
							{
								OFFSET 0.03805 1.84093 -0.15754
							}
						}
					}
				}
				JOINT LeftShoulder
				{
					OFFSET 0 0 0
					CHANNELS 3 Zrotation Yrotation Xrotation
					JOINT LeftArm
					{
						OFFSET 3.42372 1.09575 -0.28209
						CHANNELS 3 Zrotation Yrotation Xrotation
						JOINT LeftForeArm
						{
							OFFSET 4.95681 -0.00000 0.00000
							CHANNELS 3 Zrotation Yrotation Xrotation
							JOINT LeftHand
							{
								OFFSET 3.40915 -0.00000 0.00000
								CHANNELS 3 Zrotation Yrotation Xrotation
								JOINT LeftFingerBase
								{
									OFFSET 0 0 0
									CHANNELS 3 Zrotation Yrotation Xrotation
									JOINT LeftHandIndex1
									{
										OFFSET 0.61640 -0.00000 0.00000
										CHANNELS 3 Zrotation Yrotation Xrotation
										End Site
										{
											OFFSET 0.49696 -0.00000 0.00000
										}
									}
								}
								JOINT LThumb
								{
									OFFSET 0 0 0
									CHANNELS 3 Zrotation Yrotation Xrotation
									End Site
									{
										OFFSET 0.50455 -0.00000 0.50455
									}
								}
							}
						}
					}
				}
				JOINT RightShoulder
				{
					OFFSET 0 0 0
					CHANNELS 3 Zrotation Yrotation Xrotation
					JOINT RightArm
					{
						OFFSET -3.24731 1.15872 -0.32221
						CHANNELS 3 Zrotation Yrotation Xrotation
						JOINT RightForeArm
						{
							OFFSET -5.35200 -0.00000 0.00000
							CHANNELS 3 Zrotation Yrotation Xrotation
							JOINT RightHand
							{
								OFFSET -3.43721 -0.00000 -0.00000
								CHANNELS 3 Zrotation Yrotation Xrotation
								JOINT RightFingerBase
								{
									OFFSET 0 0 0
									CHANNELS 3 Zrotation Yrotation Xrotation
									JOINT RightHandIndex1
									{
										OFFSET -0.72009 -0.00000 0.00000
										CHANNELS 3 Zrotation Yrotation Xrotation
										End Site
										{
											OFFSET -0.58056 -0.00000 0.00000
										}
									}
								}
								JOINT RThumb
								{
									OFFSET 0 0 0
									CHANNELS 3 Zrotation Yrotation Xrotation
									End Site
									{
										OFFSET -0.58942 -0.00000 0.58942
									}
								}
							}
						}
					}
				}
			}
		}
	}
}
MOTION
Frames: 8
Frame Time: 0.0192308
0.00 0.00 0.00 -177.4210 -13.3485 -189.8100 0.0000 0.0000 0.0000 6.8267 -1.0251 -8.9736 24.4584 19.5166 103.1371 -7.0831 -41.4065 22.1188 3.2643 11.1111 32.6555 0.0000 0.0000 0.0000 22.3205 -5.4153 -6.8198 -2.8550 -10.4565 30.4680 -0.1382 0.4218 -6.8832 -0.4447 4.2787 -11.8622 2.8402 2.3353 9.6089 0.9055 3.0708 3.8610 -0.9741 1.4180 -1.2660 -11.7415 -0.1289 -9.1108 8.0190 -6.3409 41.1855 4.1963 -5.2371 17.1394 -0.0000 0.0000 0.0000 -85.8820 16.9811 7.4609 27.6570 -38.7985 -9.9080 -0.0000 0.0000 -11.8350 21.5223 20.4606 7.8490 -7.1250 0.0000 -0.0000 -7.1228 51.6966 -1.1796 -0.0000 0.0000 0.0000 86.5247 -15.0229 22.8389 -21.9367 32.9054 -6.5514 0.0000 -0.0000 -11.4928 -20.3135 13.0294 -4.7707 7.1250 -0.0000 -0.0000 4.8269 -16.1511 3.3056
0.00 0.00 0.00 -176.1620 -9.3974 -190.6210 0.0000 0.0000 0.0000 10.1257 -1.8428 -8.6984 27.8264 18.4631 113.4620 -6.0916 -38.9891 15.1821 1.9267 8.7117 24.8976 0.0000 0.0000 0.0000 25.1939 -4.3155 -9.2673 -4.9365 -13.3119 40.5475 -1.1887 3.3021 -19.7784 -0.1065 -2.1045 5.7945 4.1549 2.2727 11.7155 3.0611 2.9087 5.1360 0.4903 1.2092 -1.1254 -10.5595 0.7714 -9.5957 4.8359 -3.5419 40.6341 2.9845 -4.1718 16.4210 -0.0000 -0.0000 0.0000 -93.0362 9.3158 -3.4930 15.6839 -25.0902 -3.5108 -0.0000 0.0000 -5.4921 23.9209 19.3624 8.3662 -7.1250 0.0000 -0.0000 -4.4175 50.9564 -0.6494 -0.0000 -0.0000 0.0000 84.2866 -1.3201 4.6653 -13.4971 22.0113 -2.6367 0.0000 -0.0000 -1.9395 -19.1259 11.2980 -3.8867 7.1250 -0.0000 -0.0000 5.6121 -18.0739 3.6115
0.00 0.00 0.00 -176.0320 -9.2432 -187.4720 0.0000 0.0000 0.0000 5.9292 -1.3652 -13.7904 29.2022 17.8347 117.8769 -2.0528 -25.0977 3.1415 0.3220 3.6476 10.0873 0.0000 0.0000 0.0000 26.1100 -3.4929 -4.6576 -2.7708 -10.3144 30.0010 -0.8686 2.8780 -16.8752 -0.6365 -5.1043 14.2063 3.6745 1.2652 10.1364 3.6608 1.5227 4.5856 1.5670 0.5313 -0.8990 -10.1710 1.0674 -10.0111 5.9890 -3.7408 40.5621 3.3911 -4.0716 16.5094 -0.0000 0.0000 0.0000 -93.6795 12.1115 11.9239 17.1531 -27.0592 -4.1568 -0.0000 -0.0000 8.6171 26.1804 14.8682 7.1900 -7.1250 0.0000 -0.0000 -1.3126 46.4556 -0.0472 -0.0000 0.0000 0.0000 84.1386 1.5148 6.6963 -17.3255 27.2848 -4.2355 0.0000 -0.0000 -17.4137 -24.7102 10.7229 -4.8936 7.1250 -0.0000 -0.0000 1.6637 -18.2078 1.0610
0.00 0.00 0.00 -175.0900 -10.3200 -185.7590 0.0000 0.0000 0.0000 6.8729 0.8455 -22.1312 31.3098 16.6042 124.9876 -0.8723 -21.8240 -7.5815 0.0078 -0.5690 -1.5635 0.0000 0.0000 0.0000 27.6171 -5.0328 3.7842 -0.5099 -4.5770 12.7060 -0.2696 -1.9033 -10.6953 -0.6632 -5.2084 14.5038 4.4591 1.3858 10.0968 3.9088 1.7992 4.1905 1.3535 0.6770 -1.2673 -10.5344 -0.2905 -10.7435 6.4904 -4.8518 38.3061 3.5043 -4.1887 15.6833 0.0000 0.0000 0.0000 -90.8834 13.6463 22.1449 23.1214 -34.2213 -7.2064 -0.0000 0.0000 -3.1075 29.3613 21.3094 11.5546 -7.1250 0.0000 -0.0000 0.7166 54.0899 0.1601 0.0000 0.0000 0.0000 83.5123 -2.1637 13.6890 -24.1670 35.3404 -7.8030 0.0000 -0.0000 -16.1003 -21.4513 12.8077 -4.9782 7.1250 -0.0000 -0.0000 4.0327 -16.2760 2.7478
0.00 0.00 0.00 -173.1030 -9.3497 -183.0650 0.0000 0.0000 0.0000 -2.6472 -0.2827 -42.5833 25.5360 19.2488 106.3835 -0.9614 -21.4488 -6.0564 0.2156 -2.9890 -8.2481 0.0000 0.0000 0.0000 30.0335 -4.6205 5.8081 -0.1902 -2.8089 7.7472 -0.2168 -2.9071 -10.3624 -0.8080 -5.7366 16.0221 7.1004 2.4449 12.2554 3.4988 3.5691 4.2855 -0.8084 1.5243 -2.1157 -10.4946 0.1870 -10.5687 5.0935 -3.5688 38.7507 3.1170 -3.7876 15.6820 -0.0000 0.0000 0.0000 -86.3808 6.5710 15.1888 30.3294 -41.1741 -11.6259 -0.0000 0.0000 -8.4914 24.9511 20.6458 9.3163 -7.1250 0.0000 -0.0000 -3.7197 52.5087 -0.6882 -0.0000 0.0000 0.0000 82.6765 3.2953 19.6476 -19.9834 30.6223 -5.5229 0.0000 -0.0000 -10.6619 -19.6613 13.5308 -4.7785 7.1250 -0.0000 -0.0000 5.2921 -15.6860 3.6802
0.00 0.00 0.00 -172.7990 -8.9741 -182.6660 0.0000 0.0000 0.0000 -4.8042 -2.4031 -40.0194 19.8870 19.9997 89.6696 -0.9145 -20.7993 -5.7121 1.3000 -7.2233 -20.3787 0.0000 0.0000 0.0000 30.3077 -3.2015 2.7796 -0.7108 -5.3883 15.0195 -0.6576 -1.1972 -15.7978 -0.5455 -4.7316 13.1446 7.4372 2.5264 11.7859 3.3918 3.6565 4.3882 -1.0923 1.5853 -1.7143 -10.3476 0.5516 -10.5001 4.9199 -3.1268 39.1717 3.0860 -3.6494 15.8213 0.0000 0.0000 0.0000 -86.2938 6.6550 14.2361 30.4569 -41.2818 -11.7099 -0.0000 0.0000 -11.4265 26.5558 22.3585 10.7648 -7.1250 0.0000 -0.0000 -2.5300 54.6567 -0.6005 0.0000 0.0000 0.0000 83.5330 4.3092 17.2844 -18.2924 28.5300 -4.6881 0.0000 -0.0000 -9.8878 -20.2069 12.7722 -4.6519 7.1250 -0.0000 -0.0000 4.8922 -16.4323 3.3207
0.00 0.00 0.00 -176.1600 -20.9159 -186.1630 0.0000 0.0000 0.0000 -8.4370 -9.5380 -2.0807 11.6993 18.2606 65.0324 -4.4234 -36.3492 1.0791 1.4040 7.4953 21.1912 0.0000 0.0000 0.0000 19.2080 3.9008 -9.3177 -2.0557 -8.9812 25.7367 -0.0093 2.1171 3.6634 -0.0034 0.3785 -1.0399 1.1201 1.1726 7.9554 2.3839 1.3613 4.0197 1.7173 0.5441 -0.3354 -9.6599 2.2758 -10.3024 3.5548 -0.2911 41.2325 2.8198 -2.7181 16.5507 -0.0000 0.0000 0.0000 -81.8342 7.5559 15.8281 32.7327 -43.1236 -13.2390 -0.0000 0.0000 -11.0542 19.8698 21.9867 7.7056 -7.1250 0.0000 -0.0000 -9.3032 52.9764 -1.8384 -0.0000 0.0000 0.0000 84.6547 -5.8623 12.5814 -16.0987 25.6542 -3.6886 0.0000 -0.0000 -11.3634 -21.7283 13.1587 -5.1838 7.1250 -0.0000 -0.0000 3.8562 -15.8750 2.6604
0.00 0.00 0.00 -173.1480 -20.9121 -189.1160 0.0000 0.0000 0.0000 -1.4496 -10.2542 -4.5678 15.0367 19.3988 75.3472 -4.4695 -34.5108 18.3689 3.3271 11.2066 32.9798 0.0000 0.0000 0.0000 24.6508 2.4628 -7.0340 -2.7016 -10.1955 29.6123 -0.2542 3.6165 -8.9648 -0.4157 -4.1385 11.4666 4.1098 1.6483 10.1207 3.2365 2.1449 4.6312 0.8188 0.8892 -0.8109 -8.8207 2.5363 -11.2311 2.9560 0.4789 41.3996 2.5518 -2.2828 16.8152 -0.0000 -0.0000 0.0000 -83.2268 7.0068 13.7169 30.6121 -41.4123 -11.8124 -0.0000 0.0000 -11.3587 23.2424 19.8724 8.3060 -7.1250 0.0000 -0.0000 -5.2316 51.3796 -0.8240 -0.0000 -0.0000 0.0000 84.3518 -1.4976 10.5277 -13.7280 22.3445 -2.7238 0.0000 -0.0000 -9.0512 -21.8478 14.2097 -5.6209 7.1250 -0.0000 -0.0000 3.8236 -14.7439 2.7308
